<svg id="Layer_1" data-name="Layer 1" xmlns="http://www.w3.org/2000/svg" viewBox="0 0 1010.99 114.94"><defs><style>.cls-1{fill:#3ff;}.cls-2{fill:#0c9;}.cls-3{fill:#099;}.cls-4{fill:#6cf;}.cls-5{fill:#0cf;}.cls-6{fill:#09f;}.cls-7{fill:#29abe2;}.cls-8{fill:#3c9;}.cls-9{fill:#3fc;}.cls-10{fill:#0cc;}.cls-11{fill:#3cc;}.cls-12{isolation:isolate;}</style></defs><title>logo2-01</title><polygon class="cls-1" points="138.17 94.45 171.31 112.68 171.31 73.97 138.17 94.45"/><polygon class="cls-2" points="138.17 55.41 171.31 73.97 138.17 94.45 138.17 55.41"/><polygon class="cls-3" points="106.02 78.48 138.5 94.45 138.5 55.02 106.02 78.48"/><polygon class="cls-4" points="73.54 56.67 106.02 76.22 106.02 37.12 73.54 56.67"/><polygon class="cls-5" points="73.21 17.9 106.69 37.03 73.21 57.33 73.21 17.9"/><polygon class="cls-6" points="41.39 37.12 73.21 56.67 73.21 17.99 41.39 37.12"/><polygon class="cls-7" points="41.39 0 73.21 17.99 41.39 37.12 41.39 0"/><polygon class="cls-5" points="8.25 18.56 41.39 37.12 41.39 0 8.25 18.56"/><polygon class="cls-8" points="8.25 56.67 8.25 18.56 41.39 37.12 8.25 56.67"/><polygon class="cls-9" points="41.39 76.22 41.39 37.12 8.25 56.67 41.39 76.22"/><polygon class="cls-10" points="8.25 94.45 8.25 56.67 41.39 76.22 8.25 94.45"/><polygon class="cls-10" points="203.46 96.71 170.64 73.97 170.64 112.68 203.46 96.71"/><polygon class="cls-10" points="8.25 94.39 41.07 76.22 41.07 114.94 8.25 94.39"/><polygon class="cls-1" points="73.54 96.71 40.4 114.94 40.4 76.22 73.54 96.71"/><polygon class="cls-2" points="73.54 57.67 40.4 76.22 73.54 96.71 73.54 57.67"/><polygon class="cls-3" points="106.02 78.48 73.54 96.71 73.54 57.27 106.02 78.48"/><polygon class="cls-11" points="106.02 37.12 73.54 57.27 106.02 78.48 106.02 37.12"/><polygon class="cls-4" points="138.17 58.93 105.69 78.48 105.69 37.12 138.17 58.93"/><polygon class="cls-5" points="138.5 20.15 106.02 37.12 138.5 59.59 138.5 20.15"/><polygon class="cls-6" points="170.31 39.38 138.5 58.93 138.5 20.24 170.31 39.38"/><polygon class="cls-7" points="170.31 2.26 138.5 20.24 170.31 39.38 170.31 2.26"/><polygon class="cls-5" points="203.46 20.82 170.31 39.38 170.31 2.26 203.46 20.82"/><polygon class="cls-8" points="203.46 58.93 203.46 20.82 170.31 39.38 203.46 58.93"/><polygon class="cls-9" points="170.89 73.97 170.31 39.38 203.46 58.93 170.89 73.97"/><polygon class="cls-10" points="203.46 96.71 203.46 58.93 170.64 73.97 203.46 96.71"/><g class="cls-12"><g class="cls-12"><path class="cls-3" d="M236.41,80.91a2.12,2.12,0,0,1-2.07-2.07v-50a2.12,2.12,0,0,1,2.07-2.07h40.26a2.12,2.12,0,0,1,2.07,2.07V38.92a2.07,2.07,0,0,1-.62,1.52,2,2,0,0,1-1.45.62h-23.2v5.52h19.82a2.13,2.13,0,0,1,2.07,2.07V58.6a2.06,2.06,0,0,1-.62,1.52,2,2,0,0,1-1.45.62l-19.82.07v5.8h25.07a2,2,0,0,1,1.48.62,2.13,2.13,0,0,1,.59,1.52V78.84a2,2,0,0,1-.59,1.45,2,2,0,0,1-1.48.62H236.41Z"/><path class="cls-3" d="M310.72,80.91a2,2,0,0,1-1.45-.59,2,2,0,0,1-.62-1.49V57.43a7.66,7.66,0,0,0-.59-3.25,1.88,1.88,0,0,0-1.76-1.24,9.38,9.38,0,0,0-2.28.28,12.49,12.49,0,0,0-2.28.83h0.07l-1.31.59a6.45,6.45,0,0,0-1,.52V78.84a2,2,0,0,1-.62,1.49,2,2,0,0,1-1.45.59H285.65a1.93,1.93,0,0,1-1.42-.59,2,2,0,0,1-.59-1.49V43.2a2,2,0,0,1,2-2h8.43a2.16,2.16,0,0,1,.9.28,2.45,2.45,0,0,1,.83.62l1.59,2.62a24.25,24.25,0,0,1,6.39-3.25,22.69,22.69,0,0,1,7.29-1.17q6.84,0,10.19,3.8t3.35,11V78.84a2,2,0,0,1-.62,1.49,2,2,0,0,1-1.45.59H310.72Z"/><path class="cls-3" d="M368.59,78.84a2,2,0,0,1-.59,1.49,1.93,1.93,0,0,1-1.42.59h-9.12a2.22,2.22,0,0,1-1.14-.35,1.45,1.45,0,0,1-.73-0.83l-1.1-2.21a29.16,29.16,0,0,1-6.32,3.11A21.87,21.87,0,0,1,341,81.74q-6.7,0-10-3.63t-3.35-10.53V43.2a1.88,1.88,0,0,1,.62-1.42,2.05,2.05,0,0,1,1.45-.59h11.81a2,2,0,0,1,1.45.59,1.88,1.88,0,0,1,.62,1.42V64.54q0,4.56,2.62,4.56a7.51,7.51,0,0,0,1.42-.17,13.09,13.09,0,0,0,2-.59h-0.07q0.9-.41,1.69-0.72t1.48-.66V43.2a1.88,1.88,0,0,1,.62-1.42,2.05,2.05,0,0,1,1.45-.59h11.81a2,2,0,0,1,2,2V78.84Z"/><path class="cls-3" d="M411.51,82a13.58,13.58,0,0,1-4.21,4.87,20,20,0,0,1-6.66,3,34.82,34.82,0,0,1-8.84,1,24.28,24.28,0,0,1-5.7-.66Q383.37,89.61,381,89t-4-1a10.39,10.39,0,0,1-2.11-.83,2.49,2.49,0,0,1-.73-0.79,1.92,1.92,0,0,1-.38-0.93l-0.48-7a1.91,1.91,0,0,1,.21-1.14,2.13,2.13,0,0,1,.69-0.79,1.7,1.7,0,0,1,1-.28,2.6,2.6,0,0,1,1.17.28l1.83,0.72q1.28,0.52,3.35,1.28a21.4,21.4,0,0,0,4,1.11,25.34,25.34,0,0,0,4.25.35,13,13,0,0,0,5.77-1,3.27,3.27,0,0,0,2-3V75.45a20.55,20.55,0,0,1-4.45,2,16.47,16.47,0,0,1-4.87.69,15.27,15.27,0,0,1-12-5.46,17.75,17.75,0,0,1-3.52-6,22.15,22.15,0,0,1-1.1-7.18q0-8.77,4.56-14.36a15.62,15.62,0,0,1,12.57-5.66,23,23,0,0,1,6.91,1L396.59,41q0.79,0.38,2,1.1a12.09,12.09,0,0,1,2.07,1.49l1.24-2.62a2.17,2.17,0,0,1,.79-0.79,2,2,0,0,1,1.07-.38h7.11a2,2,0,0,1,1.45.59,2,2,0,0,1,.62,1.48V75.32A14.5,14.5,0,0,1,411.51,82ZM396.63,65.16q0.55-.41,1.1-0.76V53.77q-0.21.41-1.59-.55a6.84,6.84,0,0,0-3.66-1.31q-3.11,0-4.39,1.86t-1.28,5.8A8.86,8.86,0,0,0,388.38,65a5,5,0,0,0,4.18,2.07,6.52,6.52,0,0,0,2.9-1.18A10,10,0,0,0,396.63,65.16Z"/><path class="cls-3" d="M457,78.84a2,2,0,0,1-.59,1.49,1.93,1.93,0,0,1-1.42.59h-9.12a2.22,2.22,0,0,1-1.14-.35,1.45,1.45,0,0,1-.73-0.83l-1.1-2.21a29.16,29.16,0,0,1-6.32,3.11,21.87,21.87,0,0,1-7.15,1.11q-6.7,0-10-3.63T416,67.58V43.2a1.88,1.88,0,0,1,.62-1.42,2.05,2.05,0,0,1,1.45-.59h11.81a2,2,0,0,1,1.45.59A1.88,1.88,0,0,1,432,43.2V64.54q0,4.56,2.62,4.56a7.51,7.51,0,0,0,1.42-.17,13.09,13.09,0,0,0,2-.59h-0.07q0.9-.41,1.69-0.72T441.1,67V43.2a1.88,1.88,0,0,1,.62-1.42,2.05,2.05,0,0,1,1.45-.59H455a2,2,0,0,1,2,2V78.84Z"/><path class="cls-3" d="M480.19,80.91a1.6,1.6,0,0,1-1.28-.62,2.2,2.2,0,0,1-.52-1.45v-50a2.2,2.2,0,0,1,.52-1.45,1.6,1.6,0,0,1,1.28-.62H493a1.6,1.6,0,0,1,1.28.62,2.2,2.2,0,0,1,.52,1.45v50a2.2,2.2,0,0,1-.52,1.45,1.6,1.6,0,0,1-1.28.62H480.19Z"/><path class="cls-3" d="M524.94,80.91a2,2,0,0,1-1.45-.59,2,2,0,0,1-.62-1.49V57.43a7.66,7.66,0,0,0-.59-3.25,1.88,1.88,0,0,0-1.76-1.24,9.39,9.39,0,0,0-2.28.28A12.48,12.48,0,0,0,516,54H516l-1.31.59a6.43,6.43,0,0,0-1,.52V78.84a2,2,0,0,1-.62,1.49,2,2,0,0,1-1.45.59H499.87a1.93,1.93,0,0,1-1.42-.59,2,2,0,0,1-.59-1.49V43.2a2,2,0,0,1,2-2h8.43a2.16,2.16,0,0,1,.9.28,2.45,2.45,0,0,1,.83.62l1.59,2.62A24.25,24.25,0,0,1,518,41.48a22.69,22.69,0,0,1,7.29-1.17q6.84,0,10.19,3.8t3.35,11V78.84a2,2,0,0,1-.62,1.49,2,2,0,0,1-1.45.59H524.94Z"/><path class="cls-3" d="M574,76.28q-1,.76-1.93,1.48T570,79.25a17.26,17.26,0,0,1-9.74,2.49,17,17,0,0,1-13.54-5.94q-4.9-5.73-4.9-15.33t4.76-15.33q5-5.94,13.61-5.94a18.42,18.42,0,0,1,7.39,1.59q0.69,0.35,1.31.59a10.35,10.35,0,0,1,1.24.59V28.77a2,2,0,0,1,.59-1.45,2,2,0,0,1,1.48-.62h11.88a2.12,2.12,0,0,1,2.07,2.07V78.84a2.12,2.12,0,0,1-2.07,2.07h-6.35a2.05,2.05,0,0,1-1.11-.35,2,2,0,0,1-.76-0.76Zm-4.8-8.46q0.59-.38.93-0.66V52.94a7.29,7.29,0,0,1-.79-0.38l-1-.52a6.68,6.68,0,0,0-3.66-1,6.5,6.5,0,0,0-5.66,2.73,12.76,12.76,0,0,0-1.93,7.49,11.09,11.09,0,0,0,1.69,6.53,5.54,5.54,0,0,0,4.8,2.38,7.9,7.9,0,0,0,4.14-1.45Z"/><path class="cls-3" d="M630.19,78.84a2,2,0,0,1-.59,1.49,1.93,1.93,0,0,1-1.42.59h-9.12a2.22,2.22,0,0,1-1.14-.35,1.45,1.45,0,0,1-.73-0.83l-1.1-2.21a29.18,29.18,0,0,1-6.32,3.11,21.87,21.87,0,0,1-7.15,1.11q-6.7,0-10-3.63t-3.35-10.53V43.2a1.88,1.88,0,0,1,.62-1.42,2.05,2.05,0,0,1,1.45-.59h11.81a2,2,0,0,1,1.45.59,1.88,1.88,0,0,1,.62,1.42V64.54q0,4.56,2.62,4.56a7.5,7.5,0,0,0,1.42-.17,13.09,13.09,0,0,0,2-.59h-0.07q0.9-.41,1.69-0.72T614.3,67V43.2a1.88,1.88,0,0,1,.62-1.42,2,2,0,0,1,1.45-.59h11.81a2,2,0,0,1,2,2V78.84Z"/></g><g class="cls-12"><path class="cls-3" d="M662.37,78.49q-4.35,3.31-12.09,3.31a50.51,50.51,0,0,1-7.91-.59,42.54,42.54,0,0,1-6.8-1.62,1.87,1.87,0,0,1-.9-0.62,1.93,1.93,0,0,1-.48-1l-0.9-8.49a2,2,0,0,1,.72-1.93,1.81,1.81,0,0,1,2-.14q0.62,0.28,1.93.79t3.38,1.28A21.56,21.56,0,0,0,649.32,71a7.06,7.06,0,0,0,2.07-.24,0.87,0.87,0,0,0,.76-0.79q0-.9-1.9-1.66t-5.15-1.93v0.07A31.21,31.21,0,0,1,638.34,63q-4.63-3-4.63-9.46a13.44,13.44,0,0,1,1.17-5.8,11,11,0,0,1,3.73-4.28A15.75,15.75,0,0,1,643.8,41a25.08,25.08,0,0,1,6.49-.79,23.67,23.67,0,0,1,3.35.24q1.69,0.24,3.25.59a27.13,27.13,0,0,1,2.87.79q1.31,0.45,2.28.86a1.46,1.46,0,0,1,.83.76,2.44,2.44,0,0,1,.34,1.17V52.8a1.93,1.93,0,0,1-1,1.9,1.87,1.87,0,0,1-2.07-.24l-1.21-.66q-0.93-.52-2.52-1.28a13,13,0,0,0-5.8-1.52,3.17,3.17,0,0,0-1.66.38,1.06,1.06,0,0,0-.62.86q0,1,1.83,1.9a64.13,64.13,0,0,0,6.11,2.52,20.13,20.13,0,0,1,7.73,4.8A10.5,10.5,0,0,1,666.72,69Q666.72,75.18,662.37,78.49Z"/></g><g class="cls-12"><path class="cls-3" d="M689,69.34a1.48,1.48,0,0,0,1.24.66,9.37,9.37,0,0,0,3.11-.48q1.38-.48,2.14-0.83a1.77,1.77,0,0,1,1.9.14,2.08,2.08,0,0,1,.86,1.8v8.22a2.25,2.25,0,0,1-.34,1.14,1.47,1.47,0,0,1-.83.72,9,9,0,0,1-1.76.62l-2.52.62q-1.59.34-3,.55a18.81,18.81,0,0,1-2.76.21q-7.39,0-10.74-2.83T673,70.34V52.73h-5.59a1.91,1.91,0,0,1-1.38-.62,2.07,2.07,0,0,1-.62-1.52V43.2a2.06,2.06,0,0,1,2-2.07H673V32.57a2.11,2.11,0,0,1,.52-1.38,1.78,1.78,0,0,1,1.21-.69l11.53-2a1.74,1.74,0,0,1,1.66.45,2.15,2.15,0,0,1,.69,1.62l-0.07,10.57h7.73a1.93,1.93,0,0,1,1.42.59,2,2,0,0,1,.59,1.48v7.39a2.13,2.13,0,0,1-.59,1.52,1.88,1.88,0,0,1-1.42.62h-7.73V67.37A3.31,3.31,0,0,0,689,69.34Z"/></g><g class="cls-12"><path class="cls-3" d="M701.8,80.91a1.85,1.85,0,0,1-1.35-.59,2,2,0,0,1-.59-1.49V43.2a1.93,1.93,0,0,1,.59-1.42,1.85,1.85,0,0,1,1.35-.59h8.08a1.84,1.84,0,0,1,1.11.42,1.75,1.75,0,0,1,.69,1l1.45,4.76A21.49,21.49,0,0,1,718,42.13a9,9,0,0,1,5.35-1.83,5.46,5.46,0,0,1,2.35.52,9,9,0,0,1,3.42,2.76A7.89,7.89,0,0,1,730,45l-2.9,11.19a2,2,0,0,1-1.52,1.59,1.84,1.84,0,0,1-2-.83q-1.8-2.35-3.31-2.35a4.21,4.21,0,0,0-2.76,1.52,21.43,21.43,0,0,0-2.28,2.56V78.84a2,2,0,0,1-.59,1.49,1.93,1.93,0,0,1-1.42.59H701.8Z"/></g><g class="cls-12"><path class="cls-3" d="M733,80.91a1.5,1.5,0,0,1-1.24-.62,2.3,2.3,0,0,1-.48-1.45V42.24a2.29,2.29,0,0,1,.48-1.45,1.5,1.5,0,0,1,1.24-.62h9.74a2.84,2.84,0,0,1,.86.17,5.58,5.58,0,0,1,1,.45,3.39,3.39,0,0,1,.83.66,1.18,1.18,0,0,1,.35.79v36.6a2.3,2.3,0,0,1-.48,1.45,1.45,1.45,0,0,1-1.17.62H733Zm0.72-54.45a7.47,7.47,0,0,1,9.63,0,6.57,6.57,0,0,1,1.73,4.8,6.56,6.56,0,0,1-1.73,4.8,6.59,6.59,0,0,1-11.4-4.8A6.49,6.49,0,0,1,733.68,26.46Z"/><path class="cls-3" d="M778.78,78.84a7.44,7.44,0,0,1-.73-0.76,38.13,38.13,0,0,1-6.63,2.62,25.3,25.3,0,0,1-7.18,1q-7.18,0-10.95-3.38a11.64,11.64,0,0,1-3.76-9.12q0-6.15,5.73-10.08a22.72,22.72,0,0,1,6.39-2.87,24.78,24.78,0,0,1,7.91-.79l5.8,0.28a3.88,3.88,0,0,0-1.45-3.18,6.2,6.2,0,0,0-3.8-1,21,21,0,0,0-3.45.28,16.39,16.39,0,0,0-3.38,1q-1.59.62-2.9,1.17t-2.49,1.11a1.9,1.9,0,0,1-1.62.1A2,2,0,0,1,755.05,54l-2.62-6a2.06,2.06,0,0,1,0-1.24,2.18,2.18,0,0,1,.52-1,12.19,12.19,0,0,1,2.38-1.55,42.52,42.52,0,0,1,4.25-1.9A35.37,35.37,0,0,1,765,40.79a31.34,31.34,0,0,1,6-.55,36.82,36.82,0,0,1,8.84.93A15.31,15.31,0,0,1,786,44.1a11.94,11.94,0,0,1,3.59,5.21,22.72,22.72,0,0,1,1.17,7.77V71.24l0.48,0.41L791.72,72a2.11,2.11,0,0,1,1.28.38,2,2,0,0,1,.79,2.11,2,2,0,0,1-.76,1.11l-7.32,6.08a9.17,9.17,0,0,1-6.08-2.07C779.32,79.32,779,79.07,778.78,78.84Zm-4.25-9.29,1-.45V65.85h-0.21q-10.57,0-10.57,3.38,0,1.73,3.52,1.73a13.43,13.43,0,0,0,5-.9Z"/><path class="cls-3" d="M809.13,26.77a1.44,1.44,0,0,1,1.17.62,2.3,2.3,0,0,1,.48,1.45v50a2.3,2.3,0,0,1-.48,1.45,1.44,1.44,0,0,1-1.17.62H798a1.5,1.5,0,0,1-1.24-.62,2.29,2.29,0,0,1-.48-1.45v-50a2.29,2.29,0,0,1,.48-1.45,1.5,1.5,0,0,1,1.24-.62h11.12Z"/></g><g class="cls-12"><path class="cls-3" d="M852.08,61.57V78.84a2,2,0,0,1-.62,1.45,2.07,2.07,0,0,1-1.52.62H835.3a2.1,2.1,0,0,1-1.48-.62,1.94,1.94,0,0,1-.66-1.45v-50a2.12,2.12,0,0,1,2.07-2.07H855.6a63.22,63.22,0,0,1,11.53.93,23.87,23.87,0,0,1,8.29,3,13.62,13.62,0,0,1,5,5.35A17.07,17.07,0,0,1,882.12,44q0,9.19-5.8,13.5T859.2,61.64ZM852,39.41v9.81l3.52,0.14q8.36,0.35,8.36-5a4.6,4.6,0,0,0-2.07-4,9,9,0,0,0-5.8-1.14Z"/></g><g class="cls-12"><path class="cls-3" d="M913.65,78.84a7.44,7.44,0,0,1-.72-0.76,38.19,38.19,0,0,1-6.63,2.62,25.3,25.3,0,0,1-7.18,1q-7.18,0-10.95-3.38a11.64,11.64,0,0,1-3.76-9.12q0-6.15,5.73-10.08a22.75,22.75,0,0,1,6.39-2.87,24.78,24.78,0,0,1,7.91-.79l5.8,0.28a3.89,3.89,0,0,0-1.45-3.18,6.21,6.21,0,0,0-3.8-1,21,21,0,0,0-3.45.28,16.41,16.41,0,0,0-3.38,1q-1.59.62-2.9,1.17t-2.49,1.11a1.9,1.9,0,0,1-1.62.1A2,2,0,0,1,889.93,54l-2.62-6a2.05,2.05,0,0,1,0-1.24,2.18,2.18,0,0,1,.52-1,12.18,12.18,0,0,1,2.38-1.55,42.55,42.55,0,0,1,4.25-1.9,35.39,35.39,0,0,1,5.46-1.52,31.36,31.36,0,0,1,6-.55,36.81,36.81,0,0,1,8.84.93,15.31,15.31,0,0,1,6.15,2.94,12,12,0,0,1,3.59,5.21,22.72,22.72,0,0,1,1.17,7.77V71.24l0.48,0.41L926.6,72a2.11,2.11,0,0,1,1.28.38,2,2,0,0,1,.79,2.11,1.94,1.94,0,0,1-.76,1.11l-7.32,6.08a9.17,9.17,0,0,1-6.08-2.07Zm-4.25-9.29,1-.45V65.85h-0.21q-10.57,0-10.57,3.38,0,1.73,3.52,1.73a13.42,13.42,0,0,0,5-.9Z"/><path class="cls-3" d="M933.09,80.91a1.85,1.85,0,0,1-1.35-.59,2,2,0,0,1-.59-1.49V43.2a1.93,1.93,0,0,1,.59-1.42,1.85,1.85,0,0,1,1.35-.59h8.08a1.84,1.84,0,0,1,1.1.42,1.74,1.74,0,0,1,.69,1l1.45,4.76a21.47,21.47,0,0,1,4.87-5.21,9,9,0,0,1,5.35-1.83,5.46,5.46,0,0,1,2.35.52,9,9,0,0,1,3.42,2.76,7.89,7.89,0,0,1,.86,1.42l-2.9,11.19a2,2,0,0,1-1.52,1.59,1.84,1.84,0,0,1-2-.83q-1.8-2.35-3.32-2.35a4.21,4.21,0,0,0-2.76,1.52,21.31,21.31,0,0,0-2.28,2.56V78.84a2,2,0,0,1-.59,1.49,1.93,1.93,0,0,1-1.42.59H933.09Z"/><path class="cls-3" d="M978.32,26.77a2.12,2.12,0,0,1,2.07,2.07V52.66L993,40.16h14.23a2.1,2.1,0,0,1,1.28.38,2.06,2.06,0,0,1,.73.9,2.2,2.2,0,0,1,.1,1.17,1.87,1.87,0,0,1-.66,1.14L993,58.6l15.88,18.85a2,2,0,0,1,.45,2.28,2,2,0,0,1-2,1.17H994.62a2.08,2.08,0,0,1-.79-0.24,2.66,2.66,0,0,1-.72-0.45L980.46,66V78.84a2.12,2.12,0,0,1-2.07,2.07H966.44a2.1,2.1,0,0,1-1.49-.62,1.94,1.94,0,0,1-.66-1.45v-50a2,2,0,0,1,.62-1.45,2.07,2.07,0,0,1,1.52-.62h11.88Z"/></g></g></svg>